<?xml version="1.0" encoding="UTF-8"?>
<svg id="Calque_1" data-name="Calque 1" xmlns="http://www.w3.org/2000/svg" viewBox="0 0 200 200">
  <defs>
    <style>
      .cls-1 {
        fill: #1b1464;
      }

      .cls-2 {
        fill: #fff;
      }
    </style>
  </defs>
  <path class="cls-1" d="M100,29.76c38.73,0,70.24,31.51,70.24,70.24s-31.51,70.24-70.24,70.24S29.76,138.73,29.76,100,61.27,29.76,100,29.76M100,17.76c-45.42,0-82.24,36.82-82.24,82.24s36.82,82.24,82.24,82.24,82.24-36.82,82.24-82.24S145.42,17.76,100,17.76h0Z"/>
  <g>
    <path class="cls-2" d="M145.5,63.57l-9.87-9.87c-1.43-1.43-3.81-1.23-4.99.42l-30.64,43.04-30.64-43.04c-1.18-1.65-3.55-1.85-4.99-.42l-9.87,9.87c-1.43,1.43-1.23,3.81.42,4.99l43.04,30.64-43.04,30.64c-1.65,1.18-1.85,3.55-.42,4.99l9.87,9.87c1.43,1.43,3.81,1.23,4.99-.42l30.64-43.04,30.64,43.04c1.18,1.65,3.55,1.85,4.99.42l9.87-9.87c1.43-1.43,1.23-3.81-.42-4.99l-43.04-30.64,43.04-30.64c1.65-1.18,1.85-3.55.42-4.99Z"/>
    <path class="cls-1" d="M133.32,52.74c-1.02,0-2.03.47-2.67,1.38l-30.64,43.04-30.64-43.04c-.65-.91-1.66-1.38-2.67-1.38-.83,0-1.67.31-2.31.96l-9.87,9.87c-1.43,1.43-1.23,3.81.42,4.99l43.04,30.64-43.04,30.64c-1.65,1.18-1.85,3.55-.42,4.99l9.87,9.87c.65.65,1.48.96,2.31.96,1.02,0,2.03-.47,2.67-1.38l30.64-43.04,30.64,43.04c.65.91,1.66,1.38,2.67,1.38.83,0,1.67-.31,2.31-.96l9.87-9.87c1.43-1.43,1.23-3.81-.42-4.99l-43.04-30.64,43.04-30.64c1.65-1.18,1.85-3.55.42-4.99l-9.87-9.87c-.65-.65-1.48-.96-2.31-.96h0Z"/>
  </g>
</svg>